<svg width="44" height="39" viewBox="0 0 44 39" fill="none" xmlns="http://www.w3.org/2000/svg">
<path fill-rule="evenodd" clip-rule="evenodd" d="M1.901 20.351L22.212 1.80799L41.968 20.349L42.447 19.857L22.452 1.08499C22.3888 1.02282 22.3037 0.987976 22.215 0.987976C22.1263 0.987976 22.0412 1.02282 21.978 1.08499L1.429 19.855L1.901 20.351ZM6.97 20.2L6.971 37.1C6.9706 37.145 6.97917 37.1897 6.99622 37.2313C7.01326 37.273 7.03844 37.3109 7.07028 37.3427C7.10212 37.3746 7.13998 37.3997 7.18165 37.4168C7.22333 37.4338 7.26798 37.4424 7.313 37.442H17.864C17.9544 37.4419 18.0411 37.406 18.105 37.342C18.1687 37.2775 18.2047 37.1906 18.205 37.1V27.255H26.039V37.1C26.0387 37.145 26.0474 37.1896 26.0645 37.2312C26.0816 37.2728 26.1068 37.3106 26.1386 37.3424C26.1704 37.3742 26.2082 37.3994 26.2498 37.4165C26.2914 37.4336 26.336 37.4423 26.381 37.442H37.116C37.1608 37.4422 37.2052 37.4335 37.2466 37.4163C37.288 37.3992 37.3255 37.3739 37.357 37.342C37.4206 37.2774 37.4564 37.1906 37.457 37.1V20.2H36.776V36.759H26.72V26.913C26.72 26.8214 26.6841 26.7334 26.62 26.668C26.5884 26.6362 26.5509 26.611 26.5095 26.5939C26.4681 26.5767 26.4238 26.5679 26.379 26.568H17.864C17.773 26.568 17.6856 26.6039 17.621 26.668C17.5579 26.7341 17.5221 26.8216 17.521 26.913V36.759H7.652V20.2H6.97Z" fill="#282828" stroke="#282828" stroke-width="2"/>
</svg>
