<svg xmlns="http://www.w3.org/2000/svg" width="56.5" height="11.594" viewBox="0 0 56.5 11.594">
  <defs>
    <style>
      .cls-1 {
        fill: #171717;
        fill-rule: evenodd;
      }
    </style>
  </defs>
  <path class="cls-1" d="M75.525,745.8a3.76,3.76,0,0,0-4.672,4.709,3.4,3.4,0,0,0,2.553,2.571,3.76,3.76,0,0,0,4.674-4.708A3.378,3.378,0,0,0,75.525,745.8Zm-1.054,6.23a2.6,2.6,0,1,1,2.441-2.6A2.419,2.419,0,0,1,74.471,752.032Zm9.39-6.35a3.214,3.214,0,0,0-2.508,1.02v-0.966H80.121v7.4h1.272v-3.875a2.155,2.155,0,0,1,2.295-2.393,1.811,1.811,0,0,1,1.948,2.1v4.172h1.272v-4.265A2.867,2.867,0,0,0,83.861,745.682Zm8.994,0a3.237,3.237,0,0,0-2.548,1.114v-1.06H89.074v10.01h1.272v-3.619a3.246,3.246,0,0,0,2.508,1.077A3.762,3.762,0,0,0,92.855,745.681Zm-0.066,6.348a2.6,2.6,0,0,1,0-5.188,2.445,2.445,0,0,1,2.455,2.594A2.418,2.418,0,0,1,92.789,752.029Zm18.083-6.29v7.4h1.272v-7.4h-1.272Zm7.419-.055a3.215,3.215,0,0,0-2.508,1.02v-0.966h-1.232v7.4h1.272v-3.875a2.155,2.155,0,0,1,2.3-2.393,1.811,1.811,0,0,1,1.948,2.1v4.172h1.272v-4.266A2.868,2.868,0,0,0,118.291,745.684Zm8.485,5.848-0.16.145a1.39,1.39,0,0,1-.927.319,0.964,0.964,0,0,1-1.048-1.122v-4.039h2.126v-1.129h-2.125v-1.538h-1.267v6.76a2.011,2.011,0,0,0,2.209,2.21,2.384,2.384,0,0,0,1.582-.536l0.092-.083Zm-23.256-7.159a5.1,5.1,0,1,0,5.051,5.086A4.911,4.911,0,0,0,103.52,744.373Zm2.3,7.4h-4.643a0.653,0.653,0,0,1-.65-0.655v-3.282a0.676,0.676,0,0,1,.674-0.679h4.618a0.676,0.676,0,0,1,.674.679V751.1A0.677,0.677,0,0,1,105.821,751.777Z" transform="translate(-70.75 -744.156)"/>
</svg>
